<svg xmlns="http://www.w3.org/2000/svg" style="width:0; height:0; visibility:hidden;">
    <symbol id="code" viewBox="0 0 30 28">
       <path fill="#444444" d="M9.641 21.859l-0.781 0.781q-0.156 0.156-0.359 0.156t-0.359-0.156l-7.281-7.281q-0.156-0.156-0.156-0.359t0.156-0.359l7.281-7.281q0.156-0.156 0.359-0.156t0.359 0.156l0.781 0.781q0.156 0.156 0.156 0.359t-0.156 0.359l-6.141 6.141 6.141 6.141q0.156 0.156 0.156 0.359t-0.156 0.359zM18.875 5.187l-5.828 20.172q-0.063 0.203-0.242 0.305t-0.367 0.039l-0.969-0.266q-0.203-0.063-0.305-0.242t-0.039-0.383l5.828-20.172q0.063-0.203 0.242-0.305t0.367-0.039l0.969 0.266q0.203 0.063 0.305 0.242t0.039 0.383zM29.141 15.359l-7.281 7.281q-0.156 0.156-0.359 0.156t-0.359-0.156l-0.781-0.781q-0.156-0.156-0.156-0.359t0.156-0.359l6.141-6.141-6.141-6.141q-0.156-0.156-0.156-0.359t0.156-0.359l0.781-0.781q0.156-0.156 0.359-0.156t0.359 0.156l7.281 7.281q0.156 0.156 0.156 0.359t-0.156 0.359z"/> 
    </symbol>
    <symbol id="mail" viewBox="0 0 32 32">
       <path fill="#444444" d="M28 5h-24c-2.209 0-4 1.792-4 4v13c0 2.209 1.791 4 4 4h24c2.209 0 4-1.791 4-4v-13c0-2.208-1.791-4-4-4zM2 10.25l6.999 5.25-6.999 5.25v-10.5zM30 22c0 1.104-0.898 2-2 2h-24c-1.103 0-2-0.896-2-2l7.832-5.875 4.368 3.277c0.533 0.398 1.166 0.6 1.8 0.6 0.633 0 1.266-0.201 1.799-0.6l4.369-3.277 7.832 5.875zM30 20.75l-7-5.25 7-5.25v10.5zM17.199 18.602c-0.349 0.262-0.763 0.4-1.199 0.4s-0.851-0.139-1.2-0.4l-12.8-9.602c0-1.103 0.897-2 2-2h24c1.102 0 2 0.897 2 2l-12.801 9.602z"/> 
    </symbol></svg>